<?xml version="1.0" encoding="UTF-8" standalone="no"?>
<!-- Created with Inkscape (http://www.inkscape.org/) -->

<svg
   xmlns:dc="http://purl.org/dc/elements/1.1/"
   xmlns:cc="http://creativecommons.org/ns#"
   xmlns:rdf="http://www.w3.org/1999/02/22-rdf-syntax-ns#"
   xmlns:svg="http://www.w3.org/2000/svg"
   xmlns="http://www.w3.org/2000/svg"
   xmlns:sodipodi="http://sodipodi.sourceforge.net/DTD/sodipodi-0.dtd"
   xmlns:inkscape="http://www.inkscape.org/namespaces/inkscape"
   width="36"
   height="36"
   viewBox="0 0 9.5249998 9.5250003"
   version="1.1"
   id="svg8589"
   inkscape:version="0.92.1 r15371"
   sodipodi:docname="calender.svg">
  <defs
     id="defs8583" />
  <sodipodi:namedview
     id="base"
     pagecolor="#ffffff"
     bordercolor="#666666"
     borderopacity="1.0"
     inkscape:pageopacity="0.0"
     inkscape:pageshadow="2"
     inkscape:zoom="15.839192"
     inkscape:cx="24.023359"
     inkscape:cy="19.519332"
     inkscape:document-units="mm"
     inkscape:current-layer="layer1"
     showgrid="false"
     units="px"
     inkscape:window-width="1920"
     inkscape:window-height="1027"
     inkscape:window-x="-8"
     inkscape:window-y="-8"
     inkscape:window-maximized="1" />
  <metadata
     id="metadata8586">
    <rdf:RDF>
      <cc:Work
         rdf:about="">
        <dc:format>image/svg+xml</dc:format>
        <dc:type
           rdf:resource="http://purl.org/dc/dcmitype/StillImage" />
        <dc:title></dc:title>
      </cc:Work>
    </rdf:RDF>
  </metadata>
  <g
     inkscape:label="Layer 1"
     inkscape:groupmode="layer"
     id="layer1"
     transform="translate(0,-287.47498)">
    <path
       style="opacity:1;fill:#ffffff;fill-opacity:1;stroke:none;stroke-width:0.01111117;stroke-opacity:1"
       d="m 2.7791296,288.21838 c -0.4041335,0 -0.5554606,0.0406 -0.7560697,0.20117 -0.2101457,0.16803 -0.264944,0.30731 -0.264944,0.67605 v 0.24963 H 1.3356518 c -0.38526962,0 -0.42952152,0.0157 -0.51050352,0.039 -0.1044786,0.0406 -0.2496551,0.14693 -0.31341633,0.2318 -0.10654234,0.14069 -0.10174369,0 -0.0961157,3.14547 l 0.005622,2.90068 0.0500829,0.0922 c 0.0907548,0.16224 0.25658283,0.28417 0.45153823,0.32637 l -0.00156,0.0156 c 0.067809,0.0171 0.91764912,0.0171 3.89907622,0.0171 h 3.8134552 l 0.1041981,-0.0406 c 0.1546706,-0.0609 0.2725266,-0.15632 0.3449146,-0.28121 l 0.063009,-0.10627 v -2.9418 -2.94195 l -0.054928,-0.0985 c -0.064042,-0.11566 -0.2137939,-0.24259 -0.3481455,-0.29574 -0.082673,-0.0406 -0.1249245,-0.0406 -0.51212,-0.0406 H 7.8082972 v -0.2351 c 0,-0.12974 -0.00954,-0.27449 -0.019384,-0.31982 -0.059867,-0.26448 -0.3324958,-0.49941 -0.6413664,-0.55412 -0.1523103,-0.0344 -0.6001376,-0.0281 -0.7350661,0 -0.2289078,0.05 -0.4302047,0.19131 -0.5412017,0.38046 l -0.064619,0.10628 -0.0097,0.30292 -0.010471,0.302 H 4.7783444 3.7702547 l -0.00563,-0.30606 -0.00563,-0.30622 -0.063008,-0.10627 c -0.070059,-0.12036 -0.2158605,-0.25728 -0.3449133,-0.31824 -0.1397115,-0.0657 -0.282285,-0.0922 -0.571895,-0.0922 z m 4.0525481,0.55257 c 0.1893093,0.0156 0.2030164,0.0156 0.2528313,0.05 l 0.052505,0.0422 v 0.68494 0.68418 l -0.062196,0.0469 v 0 c -0.060524,0.0454 -0.066823,0.0454 -0.2657505,0.0454 -0.2238433,0 -0.2695724,0 -0.3150295,-0.0641 -0.026197,-0.0328 -0.030699,-0.11724 -0.030699,-0.71326 0,-0.73919 -0.00281,-0.72199 0.1114657,-0.76264 0.036498,-0.0171 0.1274254,-0.0171 0.2568673,-0.0171 z m -4.0880919,0 c 0.2302957,0 0.3113435,0.0156 0.344108,0.089 0.01,0.0235 0.017773,0.3206 0.017773,0.70606 v 0.66558 l -0.045237,0.0422 v 0 c -0.044877,0.0469 -0.050347,0.0469 -0.2705992,0.0469 -0.1315208,0 -0.241233,3.1e-4 -0.2649487,-0.0171 -0.089988,-0.0374 -0.092083,-0.0547 -0.092083,-0.77156 v -0.67277 l 0.052505,-0.0422 c 0.049957,-0.05 0.062541,-0.05 0.2584835,-0.05 z m -1.6486465,2.25526 h 0.748798 0.7496062 v 0.63573 0.63649 H 1.8437373 1.0949393 v -0.63649 z m 1.8400863,0 h 0.8441123 0.844114 v 0.63573 0.63649 H 3.7791379 2.9350256 v -0.63649 z m 2.0105257,0 H 5.789662 6.6337774 v 0.63573 0.63649 H 5.789662 4.9455513 v -0.63649 z m 2.0299099,0 h 0.7496045 0.7487998 v 0.63573 0.63649 H 7.7250657 6.9754612 v -0.63649 z m -5.8805219,1.54201 h 0.748798 0.7496062 v 0.70841 0.70763 H 1.8437373 1.0949393 v -0.70763 z m 3.8603018,0 h 0.8392681 0.8392682 v 0.70841 l -8.268e-4,0.6995 H 5.7880505 4.9439351 l 0.00563,-0.70435 z m 2.0202201,0 h 0.7496045 0.7487998 v 0.70841 0.70763 H 7.7250657 6.9754612 v -0.70763 z m -4.0412422,0 h 0.8392652 0.8392682 l 0.00563,0.70435 0.00484,0.71153 H 3.7783048 2.9341924 v -0.70747 z m -1.8392797,1.69786 h 0.748798 0.7496062 v 0.63572 0.63651 H 1.8437373 1.0949393 v -0.63651 z m 5.8805219,0 h 0.7496045 0.7487998 v 0.63572 0.63651 H 7.7250657 6.9754612 v -0.63651 z m -4.0396289,0 h 0.8441154 0.8441106 l -0.00563,0.63166 -0.00235,0.63009 h -0.827135 c -0.4546144,0.0171 -0.8316074,0 -0.8392635,0 -0.00796,0 -0.013756,-0.2923 -0.013756,-0.6365 z m 2.0105255,0 h 0.844922 0.8441109 l -0.00563,0.63166 -0.00329,0.63009 H 5.8001365 c -0.4546144,0.0171 -0.8316043,0 -0.8392635,0 -0.00828,0 -0.014537,-0.2923 -0.014537,-0.6365 z"
       id="path6638"
       inkscape:connector-curvature="0" />
  </g>
</svg>
