<?xml version="1.0" encoding="UTF-8" standalone="no"?>
<!-- Created with Inkscape (http://www.inkscape.org/) -->

<svg
   xmlns:dc="http://purl.org/dc/elements/1.1/"
   xmlns:cc="http://creativecommons.org/ns#"
   xmlns:rdf="http://www.w3.org/1999/02/22-rdf-syntax-ns#"
   xmlns:svg="http://www.w3.org/2000/svg"
   xmlns="http://www.w3.org/2000/svg"
   xmlns:sodipodi="http://sodipodi.sourceforge.net/DTD/sodipodi-0.dtd"
   xmlns:inkscape="http://www.inkscape.org/namespaces/inkscape"
   width="150"
   height="150"
   viewBox="0 0 8.4666665 8.4666669"
   version="1.1"
   id="svg4167"
   inkscape:version="0.92.1 r15371"
   sodipodi:docname="company-2.svg">
  <defs
     id="defs4161" />
  <sodipodi:namedview
     id="base"
     pagecolor="#ffffff"
     bordercolor="#666666"
     borderopacity="1.0"
     inkscape:pageopacity="0.0"
     inkscape:pageshadow="2"
     inkscape:zoom="15.839192"
     inkscape:cx="13.865862"
     inkscape:cy="13.445797"
     inkscape:document-units="mm"
     inkscape:current-layer="layer1"
     showgrid="false"
     units="px"
     inkscape:window-width="1920"
     inkscape:window-height="1027"
     inkscape:window-x="-8"
     inkscape:window-y="-8"
     inkscape:window-maximized="1" />
  <metadata
     id="metadata4164">
    <rdf:RDF>
      <cc:Work
         rdf:about="">
        <dc:format>image/svg+xml</dc:format>
        <dc:type
           rdf:resource="http://purl.org/dc/dcmitype/StillImage" />
        <dc:title></dc:title>
      </cc:Work>
    </rdf:RDF>
  </metadata>
  <g
     inkscape:label="Layer 1"
     inkscape:groupmode="layer"
     id="layer1"
     transform="translate(0,-288.53332)">
    <path
       inkscape:connector-curvature="0"
       id="path4155"
       d="m 4.2310261,288.87325 c -0.012371,3e-5 -0.1847832,0.1257 -0.3830625,0.27923 -0.1983111,0.15349 -0.5642921,0.43642 -0.8132853,0.62874 l -0.4528051,0.34963 0.070472,0.50372 c 0.038854,0.27702 0.07303,0.50505 0.077244,0.50805 0.00374,0.002 0.082278,0.0606 0.1747064,0.12933 0.092337,0.0688 0.175968,0.125 0.1877066,0.125 0.011137,0 0.020176,-0.0784 0.020176,-0.17428 v -0.17438 l 0.142691,-0.0511 c 0.078494,-0.0287 0.1519942,-0.0511 0.1652374,-0.0509 0.011137,6e-5 0.02196,0.0927 0.02196,0.20588 v 0.20573 l -0.1201121,0.0541 c -0.066183,0.0298 -0.1185825,0.062 -0.1185825,0.0723 9.106e-4,0.0104 0.08328,0.0762 0.1830817,0.14735 0.1647228,0.11735 0.1801006,0.13707 0.1605386,0.21033 -0.1354992,0.52083 -0.2832327,1.61522 -0.3920946,2.90239 -0.03732,0.44586 -0.040017,0.66668 -0.012927,1.28797 0.012752,0.29626 0.02106,0.55091 0.023089,0.6754 H 4.253315 v -3.88146 c 0,-2.17409 -0.00905,-3.95296 -0.022288,-3.9529 z m 0.1720093,0.0899 -0.00722,3.89807 -0.00714,3.84645 h 0.927062 l -0.00401,-0.76692 c -0.00301,-0.47509 -0.015674,-1.01197 -0.028916,-1.19322 l -0.02258,-0.32944 -0.097677,-0.028 -0.097606,-0.0279 v -0.25108 -0.251 h 0.091451 c 0.086469,0 0.09008,-0.005 0.075935,-0.0976 -0.00863,-0.0537 -0.029924,-0.2937 -0.048584,-0.53333 -0.018149,-0.23954 -0.052851,-0.52926 -0.076627,-0.64372 -0.023783,-0.11449 -0.032518,-0.2157 -0.018973,-0.22533 0.013814,-0.009 0.078046,-0.0506 0.1425453,-0.0914 l 0.117345,-0.0741 -0.1072572,-0.0408 -0.107364,-0.0409 0.026185,-0.15534 c 0.053061,-0.31433 0.033328,-0.29198 0.2082834,-0.23599 l 0.1537638,0.0493 -0.019266,0.15962 c -0.017878,0.15082 -0.01586,0.15803 0.040061,0.12824 0.097094,-0.052 0.075348,0.0549 0.2447047,-1.20218 l 0.095127,-0.70534 -0.1052872,-0.0908 c -0.057908,-0.05 -0.3907487,-0.31728 -0.7395736,-0.59393 z M 4.02256,289.83599 c 0.013543,0 0.018331,0.12291 0.013512,0.2734 l -0.00871,0.27347 -0.1501217,0.0569 h 2.877e-4 c -0.082554,0.0315 -0.159796,0.0571 -0.1727367,0.0571 -0.011436,3e-5 -0.021962,-0.11919 -0.021962,-0.26489 v -0.26484 l 0.1583177,-0.0655 c 0.087041,-0.0361 0.1681629,-0.0656 0.181406,-0.0656 z m 0.6361404,0 c 0.00846,0 0.089738,0.0417 0.1802404,0.093 l 0.1648719,0.0929 v 0.25256 h 3.71e-5 c 0,0.13887 -0.00211,0.251 -0.00693,0.251 -0.0041,-7.1e-4 -0.085196,-0.0414 -0.1802413,-0.0905 l -0.1727389,-0.0891 v -0.25487 c 0,-0.14028 0.00663,-0.2549 0.014751,-0.2549 z m 0.6615274,0.34008 c 0.022031,0.002 0.095063,0.0304 0.1763053,0.0703 0.1639075,0.0802 0.1685828,0.0864 0.1684411,0.20423 -2.876e-4,0.0668 -0.00903,0.17204 -0.019558,0.23407 h 8.387e-4 c -0.010146,0.062 -0.026687,0.11336 -0.037221,0.11035 -0.028021,-0.003 -0.095553,-0.0291 -0.2307175,-0.0872 l -0.1220422,-0.0523 0.021998,-0.2325 c 0.013212,-0.12785 0.028843,-0.23908 0.035763,-0.24601 9.347e-4,-9.6e-4 0.00304,-10e-4 0.00619,-9.6e-4 z m -1.9982354,0.0235 c 0.00768,-2.5e-4 0.013419,9.5e-4 0.016713,0.004 0.018512,0.0185 0.098639,0.36215 0.1016475,0.43165 7.43e-4,0.0183 -0.074517,0.0622 -0.1667643,0.0975 -0.09249,0.0355 -0.1707957,0.0644 -0.1756158,0.0644 -0.0041,0 -0.022799,-0.0777 -0.044469,-0.17285 -0.020435,-0.0949 -0.043929,-0.19334 -0.049349,-0.21771 -0.012247,-0.0441 0.2435778,-0.20393 0.3178352,-0.20723 z m 0.7204152,0.38356 v 0.28342 l -1.394e-4,0.28323 -0.1516508,0.0631 c -0.1821186,0.0757 -0.1854148,0.0714 -0.1727741,-0.23808 l 0.00903,-0.22252 0.1577689,-0.0844 z m 0.6179676,0.004 c 0.00942,0 0.077097,0.0351 0.1504146,0.0779 l 0.1330394,0.0781 v 0.23753 c 0,0.26195 -0.00223,0.26385 -0.1877064,0.182 l -0.1125731,-0.0496 v -0.26302 c 0,-0.14452 0.0072,-0.26284 0.016826,-0.26284 z m -2.5525775,0.29925 c -0.011137,0 -0.021365,1.36216 -0.026186,3.02703 l -0.00667,2.79436 h 0.8136139 c 0.013337,-0.4043 0.1317624,-1.98181 0.2082483,-2.72674 0.1012169,-0.98595 0.2213735,-1.81354 0.3018807,-2.07944 0.011861,-0.0391 -0.1387691,-0.16688 -0.6284184,-0.53334 -0.354184,-0.26503 -0.6519408,-0.48187 -0.6624741,-0.48187 z m -0.2151308,9.7e-4 c -0.024289,0 -1.27545109,0.93403 -1.27545109,0.95179 0,0.008 0.0264741,0.14591 0.0587098,0.30555 0.149822,0.74006 0.28604843,2.31356 0.36168129,4.18079 0.00582,0.14372 0.010386,0.26253 0.015043,0.3824 h 0.8565521 v -2.78387 c 0,-1.67012 -0.00721,-3.03666 -0.016534,-3.03666 z m 3.3748607,0.003 c 0.020316,10e-4 0.091708,0.0249 0.1728474,0.0578 0.166197,0.0678 0.1671011,0.069 0.1520517,0.17661 -0.009,0.0595 -0.024639,0.17262 -0.035472,0.2511 h -0.0011 c -0.021159,0.15693 -0.029742,0.16048 -0.2162232,0.0889 l -0.1287438,-0.0495 0.021085,-0.25628 c 0.010535,-0.14095 0.025567,-0.26227 0.030083,-0.26768 6.95e-4,-7.3e-4 0.00257,-9.7e-4 0.00547,-9.7e-4 z m -0.6241605,0.44854 0.1500495,0.0923 0.1504126,0.0926 v 0.23767 c 0,0.2665 -0.00918,0.27472 -0.1879249,0.17125 l -0.1125372,-0.0655 v -0.26412 z m -0.6530027,0.035 c 0.049953,1.3e-4 0.052043,0.0691 0.052043,0.262 0,0.26446 -9.347e-4,0.26783 -0.082781,0.29733 l 0.00197,-7e-5 c -0.045446,0.0165 -0.1062958,0.0389 -0.1351897,0.0514 -0.036988,0.0148 -0.054156,0.007 -0.054156,-0.0271 -0.0018,-0.0264 -0.0018,-0.1463 -0.0048,-0.26608 l -0.00302,-0.21775 0.1014643,-0.0512 c 0.059023,-0.0297 0.098317,-0.0486 0.1244829,-0.0485 z m -1.6474043,0.26578 c 0.00867,0 0.070124,0.0218 0.136609,0.0482 l 0.1207307,0.0484 v 0.19207 h 3.62e-4 c 0,0.10558 -0.00931,0.19029 -0.022252,0.19029 -0.012371,-9.5e-4 -0.06988,-0.0174 -0.1277254,-0.0376 -0.1046777,-0.0357 -0.1052635,-0.0365 -0.113992,-0.23865 -0.00633,-0.11158 -0.00242,-0.20279 0.00631,-0.20279 z m 4.3872522,0.0183 -0.00722,2.66435 -0.00648,2.38548 h 0.8265434 l 0.00262,-0.67868 c 0.00562,-1.4753 0.074262,-2.58018 0.2018733,-3.24976 0.024374,-0.12391 0.036396,-0.23492 0.029172,-0.24816 -0.00764,-0.0125 -0.2462299,-0.21424 -0.5301962,-0.44804 z m -0.2509672,0.0141 c -0.014598,0.005 -0.2925062,0.18576 -0.6174948,0.4005 l -0.5909821,0.39061 0.017447,0.13532 c 0.00975,0.0743 0.031813,0.23653 0.047164,0.36038 0.065581,0.50269 0.178717,2.72316 0.1787467,3.50779 v 0.24113 h 1.0055457 c -0.00781,-0.4112 -0.013622,-1.34152 -0.013622,-2.41618 0,-1.51374 -0.012057,-2.62466 -0.026803,-2.61955 z m -3.6093656,0.17408 0.1577334,0.0853 c 0.147325,0.0798 0.1566611,0.0921 0.150338,0.18968 -0.0027,0.0574 -0.013521,0.1348 -0.022252,0.17197 l -2.875e-4,2.1e-4 c -0.01812,0.0777 -0.01732,0.0775 -0.1899293,0.0166 -0.1100353,-0.0389 -0.1268897,-0.0559 -0.1130468,-0.11027 0.00964,-0.0354 0.017234,-0.12937 0.017447,-0.20891 z m 1.7734876,0.24845 0.1350445,0.0756 0.1352621,0.0755 v 0.25289 h -5.033e-4 c 0,0.13905 -0.00962,0.25225 -0.02196,0.2521 -0.012431,-4.8e-4 -0.073456,-0.0301 -0.1353354,-0.0661 l -0.1125372,-0.0652 v -0.26245 z m -0.6172029,0.0258 c 0.00933,0 0.016244,0.12555 0.016244,0.27901 l -1.395e-4,0.27894 -0.1326031,0.0491 c -0.072986,0.0261 -0.137908,0.0436 -0.1427286,0.039 -0.00933,-0.008 -0.00782,-0.19715 0.00302,-0.47272 0.00153,-0.0426 0.1949024,-0.17336 0.2562113,-0.17336 z m -1.6661234,0.099 c 0.00615,6e-5 0.013523,0.002 0.022362,0.006 0.028894,0.0117 0.089773,0.0347 0.1351895,0.0512 0.077584,0.0284 0.082708,0.0398 0.082708,0.2222 0,0.20757 -0.00241,0.20963 -0.1728472,0.15489 l -0.097605,-0.0313 v -0.2092 c 0,-0.15266 0.00357,-0.19417 0.030193,-0.19389 z m 4.5199287,0.11662 c 0.022664,-9.5e-4 0.056855,0.014 0.1082756,0.0406 0.082375,0.0422 0.088718,0.0586 0.088718,0.2104 0,0.179 -1.903e-4,0.17918 -0.1427283,0.11673 -0.093542,-0.0407 -0.09775,-0.0503 -0.09775,-0.20785 0,-0.11177 0.00572,-0.15814 0.043485,-0.15988 z m -4.0089251,0.12314 c 0.00607,-4.9e-4 0.013306,9.5e-4 0.021924,0.003 0.028894,0.008 0.09108,0.024 0.1382145,0.0361 0.075722,0.0182 0.082642,0.0302 0.067595,0.11032 -0.00994,0.0494 -0.017775,0.12873 -0.017775,0.17623 h -3.594e-4 c 0,0.0943 -5.753e-4,0.0945 -0.1426932,0.0489 -0.094565,-0.0308 -0.097567,-0.035 -0.097567,-0.20927 0,-0.12647 0.00435,-0.1635 0.030629,-0.16567 z m 4.4323396,0.0821 c 0.00897,0 0.069784,0.0273 0.1353353,0.0607 0.1141227,0.0584 0.1189464,0.0663 0.1189464,0.21031 h 6.35e-5 c 0,0.0823 -0.00962,0.14635 -0.021962,0.14635 -0.0124,-0.002 -0.07319,-0.0322 -0.1351898,-0.0676 -0.1056421,-0.0602 -0.1125029,-0.0736 -0.1125731,-0.20704 0,-0.0785 0.00634,-0.14269 0.015369,-0.14269 z m -0.4230869,0.26284 c 0.019354,2.3e-4 0.046356,0.0121 0.083038,0.0326 0.088457,0.0497 0.099603,0.0699 0.1077287,0.21028 0.00969,0.16882 -0.00964,0.18438 -0.1444764,0.11655 -0.060014,-0.0301 -0.077463,-0.0642 -0.084385,-0.16815 -0.010012,-0.13775 -0.00448,-0.19204 0.038095,-0.19124 z m -4.499862,0.006 c 0.027216,-0.002 0.068894,0.0154 0.1311839,0.0476 0.083579,0.043 0.088681,0.0569 0.088681,0.22536 0,0.19335 -0.00836,0.20031 -0.18024,0.15264 -0.070215,-0.0192 -0.076235,-0.0362 -0.084056,-0.22231 -0.00615,-0.14029 -9.345e-4,-0.1996 0.044432,-0.20336 z m 2.2901753,0.0851 c 0.023247,-10e-4 0.066229,0.0389 0.1454602,0.10838 0.059654,0.0519 0.067447,0.0882 0.067447,0.29438 h -6.95e-4 c 0,0.12933 -0.00931,0.23324 -0.022252,0.23324 -0.012431,-9.7e-4 -0.066236,-0.0315 -0.1197484,-0.0676 l -0.097239,-0.0657 v -0.26651 c -1.394e-4,-0.16452 -0.00287,-0.23459 0.027024,-0.23615 z m -0.6444462,0.007 c 0.00933,0 0.016244,0.11914 0.016244,0.26484 v 0.26481 l -0.1062726,0.0506 h 1.395e-4 c -0.058449,0.0284 -0.1201063,0.0506 -0.1351543,0.0506 -0.016253,0 -0.029208,-0.11097 -0.029208,-0.25483 v -0.25471 l 0.1189463,-0.0608 c 0.0654,-0.0332 0.1263062,-0.0607 0.135335,-0.0607 z m -1.2143383,0.0901 c 0.017186,0 0.079572,0.0208 0.1390137,0.0451 0.09947,0.0413 0.1063826,0.0529 0.089228,0.13894 -0.010835,0.0516 -0.019266,0.13951 -0.019266,0.19525 h 4.313e-4 c 0,0.11434 -0.00672,0.11664 -0.1426912,0.049 -0.094566,-0.0471 -0.097569,-0.0543 -0.097569,-0.23843 0,-0.11043 0.012827,-0.1899 0.030885,-0.1899 z m 4.461002,0.0358 c 0.024458,0.002 0.061803,0.0178 0.1186187,0.0448 0.1018774,0.0486 0.1060903,0.0571 0.1060903,0.2103 h -3.115e-4 c 0,0.0879 -0.00242,0.15853 -0.00725,0.15853 -0.00406,-7.2e-4 -0.065041,-0.0358 -0.1352262,-0.0782 -0.1196064,-0.0719 -0.1277236,-0.0858 -0.1277236,-0.20913 0,-0.0921 0.00501,-0.12916 0.04578,-0.12634 z m -3.7336674,0.0929 c 0.0065,-7.1e-4 0.011046,-3e-5 0.013076,0.002 0.009,0.008 0.022245,0.12412 0.031576,0.25756 l 0.01657,0.24271 h -0.076919 v -4.9e-4 c -0.042376,0 -0.098262,0.008 -0.1244457,0.0186 -0.042163,0.0156 -0.0476,-0.0141 -0.0476,-0.20949 0,-0.22422 0.00139,-0.22857 0.092944,-0.27588 0.038328,-0.0203 0.075297,-0.0331 0.094798,-0.035 z m 3.3112731,0.14167 c 0.0078,0 0.06193,0.0227 0.1202575,0.0506 0.1011268,0.0486 0.1062721,0.0572 0.1062721,0.21028 h 3.7e-5 c 0,0.0878 -0.00902,0.16155 -0.021962,0.15854 -0.012431,-7.1e-4 -0.066437,-0.0211 -0.1202212,-0.0437 -0.093421,-0.0406 -0.097605,-0.0498 -0.097605,-0.20915 0,-0.0916 0.00599,-0.16666 0.013219,-0.16666 z m -4.4943274,0.12018 c 0.014629,0 0.075344,0.0208 0.1352995,0.0455 0.1088921,0.0451 0.1088941,0.047 0.1088941,0.22526 h -3.51e-5 c 0,0.16629 -0.00498,0.18102 -0.067668,0.17802 -0.1728788,-0.005 -0.2026762,-0.0422 -0.2026762,-0.25253 0,-0.10794 0.012342,-0.19624 0.026185,-0.19624 z m 4.8709424,0.0927 0.1277234,0.0541 c 0.1243799,0.0528 0.1277287,0.0582 0.1367562,0.20912 0.010291,0.17287 -0.00575,0.18263 -0.1666928,0.1025 -0.092669,-0.0457 -0.097787,-0.0583 -0.097787,-0.20712 z m -4.4478193,0.0956 c 0.00538,-7.2e-4 0.011782,7.2e-4 0.019304,0.003 0.026154,0.0109 0.073475,0.0187 0.1051062,0.0187 0.046108,0 0.057464,0.0215 0.057251,0.11268 0,0.062 -0.00871,0.14307 -0.018938,0.18028 l 4.314e-4,-4.8e-4 c -0.017907,0.068 -0.03709,0.0734 -0.1387585,0.0469 -0.042317,-0.0112 -0.052554,-0.0477 -0.052554,-0.1951 0,-0.12386 0.00485,-0.16378 0.028189,-0.16648 z m 1.8791802,0.0508 0.1125733,0.093 0.112535,0.093 v 0.23823 l 3.594e-4,-4e-5 c 0,0.26359 -0.018058,0.28266 -0.1589717,0.16739 -0.081263,-0.0668 -0.083971,-0.0757 -0.075244,-0.33007 z m -0.6160019,0.026 v 0.28262 l 5.033e-4,0.28262 -0.1063823,0.0507 -0.1062346,0.0507 0.00871,-0.27639 0.00812,-0.27635 0.097606,-0.0569 z m 2.8375619,0.10095 c 0.022664,-9.5e-4 0.056855,0.014 0.1082756,0.0406 0.082375,0.0423 0.088718,0.0585 0.088718,0.21029 0,0.17911 -1.903e-4,0.17924 -0.1427283,0.1169 -0.093542,-0.0408 -0.09775,-0.0503 -0.09775,-0.20788 0,-0.11179 0.00572,-0.15814 0.043484,-0.15988 z m -3.3065729,0.10406 c 0.010322,2.4e-4 0.018267,0.002 0.022216,0.006 0.010473,0.0107 0.02733,0.11743 0.039369,0.23723 l 0.020541,0.21692 H 3.5484848 3.4414477 v -0.21123 c 0,-0.19145 0.00645,-0.21432 0.067667,-0.23721 0.023213,-0.008 0.047071,-0.0126 0.064282,-0.0122 z m -1.2304365,0.10094 c 0.00867,0 0.070124,0.0215 0.136609,0.0483 l 0.1207307,0.0483 v 0.19207 l 3.62e-4,-3e-5 c 0,0.10558 -0.00931,0.19029 -0.022252,0.19029 -0.012371,-9.6e-4 -0.06988,-0.0171 -0.1277254,-0.0376 -0.1046777,-0.0357 -0.1052635,-0.0364 -0.113992,-0.23866 -0.00633,-0.11154 -0.00242,-0.20278 0.00631,-0.20278 z m 4.900623,0.03 c 0.00912,0 0.056446,0.0209 0.1051429,0.0459 0.08054,0.0414 0.088682,0.0602 0.088682,0.19528 h -3.115e-4 c 0,0.0822 -0.00269,0.14935 -0.00722,0.14932 -0.00415,-6e-5 -0.051456,-0.0269 -0.1051798,-0.0596 -0.08656,-0.053 -0.097714,-0.0743 -0.097714,-0.19517 0,-0.0746 0.00724,-0.13566 0.016572,-0.13566 z m -4.3129561,0.11651 v 0.21218 l 3.52e-5,0.21268 h -0.105944 c -0.1255287,0 -0.1412013,-0.028 -0.1285607,-0.24393 l 0.00933,-0.1617 0.1125732,-0.009 z m 3.9183859,0.0938 c 0.00846,0 0.06335,0.0227 0.1216782,0.0506 0.1011268,0.0486 0.1062721,0.0572 0.1062721,0.21032 h 4.553e-4 c 0,0.17189 -0.018911,0.1871 -0.1501946,0.12092 -0.064588,-0.0327 -0.076638,-0.0611 -0.084165,-0.20989 -0.00633,-0.0946 -0.00213,-0.17197 0.00602,-0.17197 z m -2.2056458,0.17532 0.090103,0.0642 c 0.090081,0.0636 0.090064,0.067 0.090064,0.34756 2.2e-6,0.25071 -0.00599,0.28402 -0.052552,0.28101 -0.1221932,-0.005 -0.1276156,-0.024 -0.1276156,-0.36267 z m -0.6187322,0.0642 c 0.00993,0 0.017773,0.12136 0.017773,0.26965 0,0.26817 -5.033e-4,0.26983 -0.088719,0.3154 h 3.594e-4 c -0.048847,0.0242 -0.095886,0.0459 -0.1052147,0.0459 -0.00964,0 -0.016536,-0.11875 -0.016536,-0.26396 0,-0.25941 0.00142,-0.26471 0.087153,-0.3154 0.047975,-0.029 0.094946,-0.0516 0.1051795,-0.0516 z m 3.2379595,0.0652 c 0.011547,7.1e-4 0.026835,0.004 0.04709,0.009 0.045356,0.0112 0.08726,0.0256 0.091777,0.0301 l 3.116e-4,-1.3e-4 c 0.00458,0.005 0.00456,0.0771 3.67e-5,0.1602 l -0.00933,0.151 -0.082636,-0.0435 c -0.070999,-0.0378 -0.082745,-0.0615 -0.082745,-0.18096 0,-0.10136 9.106e-4,-0.12836 0.035546,-0.12653 z m -4.9025909,0.0337 c 0.00615,4e-5 0.013543,0.002 0.022398,0.006 0.028894,0.0116 0.089773,0.0349 0.1351896,0.0511 0.077592,0.0285 0.082708,0.0398 0.082708,0.22227 v 7e-5 c 0,0.20715 -0.00139,0.20826 -0.1728471,0.15874 l -0.097605,-0.0283 v -0.21266 c 0,-0.15543 0.00351,-0.1975 0.030156,-0.19732 z m 1.2303279,0.0237 c 0.059772,-10e-4 0.061477,0.055 0.061477,0.26786 0,0.19611 -0.010461,0.27063 -0.037549,0.27078 v -1.3e-4 c -0.020737,2.3e-4 -0.068003,0.008 -0.1051444,0.0186 -0.067658,0.0178 -0.067667,0.0136 -0.067667,-0.25228 0,-0.25501 0.00395,-0.27159 0.067667,-0.28844 0.034918,-0.009 0.061293,-0.0162 0.081217,-0.0165 z m 1.5040938,0.0259 c 0.018144,7.2e-4 0.041652,0.008 0.072111,0.0199 0.037982,0.0146 0.0476,0.0681 0.0476,0.27041 H 5.213633 c 0,0.13871 -0.00932,0.25106 -0.02196,0.24805 -0.1683028,-0.0304 -0.1577687,-0.0124 -0.1577687,-0.28337 0,-0.19689 0.00606,-0.25695 0.060492,-0.25498 z m -2.4341423,0.0625 h 0.090104 0.090102 v 0.18028 0.18031 h -0.090102 -0.090104 v -0.18031 z m 4.1922262,0.0293 c 0.00882,0 0.06284,0.02 0.1202948,0.0435 0.1011495,0.0423 0.1041593,0.0484 0.1041593,0.2103 h 3.835e-4 c 0,0.0917 -0.00902,0.1656 -0.021962,0.1656 -0.012431,-7.3e-4 -0.06648,-0.021 -0.1202939,-0.0436 -0.093058,-0.0406 -0.097568,-0.0498 -0.097568,-0.20916 0,-0.0917 0.00602,-0.16669 0.015041,-0.16669 z m 0.398758,0.30632 c 0.015139,-9.5e-4 0.03973,0.0108 0.07965,0.029 0.066184,0.0304 0.076409,0.0536 0.076409,0.18027 0,0.15404 -0.00613,0.16009 -0.1126099,0.10872 -0.055618,-0.0272 -0.067667,-0.0568 -0.067667,-0.17817 0,-0.10125 -0.00101,-0.13817 0.024218,-0.13978 z m -4.870832,0.14339 c 0.027216,-0.002 0.068894,0.0154 0.1311839,0.0476 0.083579,0.043 0.088681,0.0569 0.088681,0.22537 0,0.19331 -0.00836,0.20028 -0.18024,0.15266 -0.070215,-0.0192 -0.076235,-0.0362 -0.084056,-0.2223 -0.00615,-0.14031 -9.345e-4,-0.19963 0.044432,-0.2034 z m 4.4996077,0.0362 c 0.022667,-9.6e-4 0.056849,0.0141 0.1082023,0.0407 0.082375,0.0422 0.088718,0.0586 0.088718,0.21032 h -4.553e-4 c 0,0.0904 -0.00269,0.16294 -0.00722,0.16294 -0.00406,-9.6e-4 -0.058093,-0.0227 -0.1200028,-0.0482 -0.109818,-0.0459 -0.1128275,-0.0499 -0.1128275,-0.20883 0,-0.10972 0.00578,-0.15531 0.043558,-0.15679 z m -2.8376352,0.0263 v 0.282 0.282 l -0.094618,0.033 2.093e-4,-4e-5 c -0.052096,0.0191 -0.1003213,0.033 -0.1051415,0.033 -0.00602,0 -0.010854,-0.11921 -0.010854,-0.26488 v -0.26484 l 0.1052166,-0.0501 z m -1.3375455,0.0312 c 0.010198,-6e-5 0.022737,10e-4 0.038131,0.003 0.078313,0.009 0.08313,0.0187 0.091557,0.18228 l 0.00907,0.17278 h -0.09167 -0.091668 v -0.18228 c 0,-0.147 4.314e-4,-0.17554 0.044579,-0.17591 z m 1.9832291,0.0619 c 0.017864,-0.002 0.042709,0.008 0.077247,0.0272 0.050386,0.0267 0.058196,0.0645 0.058196,0.27038 0,0.20864 -0.00659,0.23993 -0.052552,0.23692 -0.117078,-0.005 -0.1276157,-0.0278 -0.1276157,-0.28554 0,-0.1789 0.00542,-0.24464 0.044724,-0.249 z m 0.3529801,9.6e-4 c 0.00827,2.4e-4 0.018396,0.003 0.03081,0.006 0.03717,0.0104 0.077497,0.0187 0.090138,0.0189 0.011436,1.9e-4 0.02196,0.11532 0.02196,0.25578 l 6.231e-4,-4.8e-4 c 0,0.26296 -0.00245,0.26736 -0.1276861,0.23465 -0.045326,-0.0117 -0.052554,-0.0512 -0.052554,-0.27042 0,-0.2046 8.628e-4,-0.24595 0.036712,-0.24474 z m -1.3892629,0.0211 v 0.25738 4.8e-4 c 0,0.25438 -5.032e-4,0.25738 -0.076009,0.25738 -0.095197,0 -0.1099268,-0.0353 -0.098186,-0.28837 0.0087,-0.20213 0.011398,-0.20755 0.091485,-0.21688 z m 3.5882785,0.1841 c 0.00726,0 0.047919,0.0139 0.090175,0.0295 0.068953,0.0261 0.077064,0.0459 0.077064,0.18028 l -1.901e-4,-1.9e-4 c 0,0.15967 -0.00598,0.16572 -0.1126462,0.11425 -0.055619,-0.0271 -0.067667,-0.0568 -0.067667,-0.1782 0,-0.0801 0.00663,-0.14565 0.013258,-0.14565 z m -0.3896533,0.12037 c 0.0078,0 0.06193,0.0227 0.1202575,0.0506 0.1011268,0.0485 0.1062721,0.0571 0.1062721,0.21032 h 5.752e-4 c 0,0.17429 -0.018803,0.18776 -0.1577327,0.11243 -0.074765,-0.0405 -0.082564,-0.0608 -0.082564,-0.20913 0,-0.0904 0.00599,-0.16425 0.013222,-0.16425 z m -4.4943274,0.0902 c 0.014629,0 0.075344,0.0208 0.1352995,0.0455 0.1088921,0.045 0.1088941,0.047 0.1088941,0.22532 h -3.51e-5 c 0,0.1662 -0.00498,0.18096 -0.067668,0.17795 -0.1728788,-0.005 -0.2026762,-0.0422 -0.2026762,-0.2525 0,-0.10795 0.012342,-0.19626 0.026185,-0.19626 z m 0.39428,0.10413 c 0.070908,0 0.075134,0.008 0.075134,0.18024 l -6.97e-5,-2.4e-4 c 0,0.17603 -0.00251,0.18026 -0.084094,0.18989 l -0.084129,0.0103 0.00903,-0.1899 c 0.00867,-0.17965 0.013011,-0.18989 0.08413,-0.18989 z m 4.4734577,0.19531 h 0.1067822 0.1067825 v 0.16512 h -3.834e-4 c 0,0.0908 -0.00932,0.16538 -0.021962,0.16237 -0.1471755,-0.0197 -0.1726221,-0.046 -0.1819526,-0.18615 z m -0.3438744,0.0953 c 0.022664,-9.6e-4 0.056855,0.014 0.1082756,0.0406 0.082375,0.0421 0.088718,0.0586 0.088718,0.21014 0,0.17923 -1.903e-4,0.17941 -0.1427283,0.11702 -0.093542,-0.0408 -0.09775,-0.0504 -0.09775,-0.208 0,-0.1117 0.00572,-0.15804 0.043484,-0.15977 z"
       style="fill:#333333;fill-opacity:1;stroke:none;stroke-width:0.09982587;stroke-opacity:1" />
    <path
       style="fill:#78bb3e;fill-opacity:1;stroke:none;stroke-width:0.09982587;stroke-opacity:1"
       d="m 6.4792451,291.67188 c -0.014598,0.005 -0.2925062,0.18576 -0.6174948,0.40051 l -0.5909821,0.39059 0.017447,0.13534 c 0.00975,0.0743 0.031813,0.23652 0.047164,0.36037 0.065581,0.50268 0.178717,2.72316 0.1787467,3.5078 v 0.24113 h 1.0055457 c -0.00781,-0.41122 -0.013622,-1.34152 -0.013622,-2.41619 0,-1.51373 -0.012057,-2.62467 -0.026803,-2.61955 z"
       id="path4326"
       inkscape:connector-curvature="0"
       sodipodi:nodetypes="ccccccccsc" />
    <path
       style="fill:#78bb3e;fill-opacity:1;stroke:none;stroke-width:0.09982587;stroke-opacity:1"
       d="m 4.2310261,288.87325 c -0.012371,3e-5 -0.1847832,0.1257 -0.3830625,0.27923 -0.1983111,0.15349 -0.5642921,0.43642 -0.8132853,0.62874 l -0.4528051,0.34963 0.070472,0.50372 c 0.038854,0.27702 0.07303,0.50505 0.077244,0.50805 0.00374,0.002 0.082278,0.0606 0.1747064,0.12933 0.092337,0.0688 0.175968,0.125 0.1877066,0.125 0.011137,0 0.020176,-0.0784 0.020176,-0.17428 v -0.17438 l 0.142691,-0.0511 c 0.078494,-0.0287 0.1519942,-0.0511 0.1652374,-0.0509 0.011137,6e-5 0.02196,0.0927 0.02196,0.20588 v 0.20573 l -0.1201121,0.0541 c -0.066183,0.0298 -0.1185825,0.062 -0.1185825,0.0723 9.106e-4,0.0104 0.08328,0.0762 0.1830817,0.14735 0.1647228,0.11735 0.1801006,0.13707 0.1605386,0.21033 -0.1354992,0.52083 -0.2832327,1.61522 -0.3920946,2.90239 -0.03732,0.44586 -0.040017,0.66668 -0.012927,1.28797 0.012752,0.29626 0.02106,0.55091 0.023089,0.6754 H 4.253315 v -3.88146 c 0,-2.17409 -0.00905,-3.95296 -0.022288,-3.9529 z M 4.02256,289.83593 c 0.013543,0 0.018331,0.12291 0.013512,0.2734 l -0.00871,0.27347 -0.1501217,0.0569 h 2.877e-4 c -0.082554,0.0315 -0.159796,0.057 -0.1727367,0.057 -0.011436,3e-5 -0.021962,-0.11919 -0.021962,-0.26489 v -0.26484 l 0.1583177,-0.0655 c 0.087041,-0.0361 0.1681629,-0.0656 0.181406,-0.0656 z m -0.7005676,0.36361 c 0.00768,-2.4e-4 0.013419,9.5e-4 0.016713,0.004 0.018512,0.0185 0.098639,0.36216 0.1016475,0.43165 7.43e-4,0.0183 -0.074517,0.0622 -0.1667643,0.0975 -0.09249,0.0354 -0.1707957,0.0644 -0.1756158,0.0644 -0.0041,0 -0.022799,-0.0778 -0.044469,-0.17285 -0.020435,-0.0949 -0.043929,-0.19333 -0.049349,-0.21771 -0.012247,-0.0441 0.2435778,-0.20393 0.3178352,-0.20723 z m 0.7204152,0.38357 v 0.28341 l -1.394e-4,0.28324 -0.1516508,0.0631 c -0.1821186,0.0757 -0.1854148,0.0714 -0.1727741,-0.23808 l 0.00903,-0.22252 0.1577689,-0.0844 z m -0.052043,0.79056 c 0.049953,1.4e-4 0.052043,0.0691 0.052043,0.262 0,0.26447 -9.347e-4,0.26784 -0.082781,0.29733 l 0.00197,-6e-5 c -0.045446,0.0165 -0.1062958,0.0389 -0.1351897,0.0513 -0.036988,0.0148 -0.054155,0.007 -0.054155,-0.0271 -0.0018,-0.0264 -0.0018,-0.1463 -0.0048,-0.26609 l -0.00302,-0.21775 0.1014643,-0.0512 c 0.059023,-0.0297 0.098317,-0.0485 0.1244829,-0.0485 z m 0.0358,0.74653 c 0.00933,0 0.016244,0.12555 0.016244,0.27901 l -1.395e-4,0.27894 -0.1326031,0.0491 c -0.072986,0.0261 -0.137908,0.0436 -0.1427286,0.0391 -0.00933,-0.008 -0.00782,-0.19716 0.00302,-0.47272 0.00153,-0.0426 0.1949024,-0.17337 0.2562113,-0.17337 z m 0,0.78142 c 0.00933,0 0.016244,0.11914 0.016244,0.26484 v 0.26481 l -0.1062726,0.0506 h 1.395e-4 c -0.058449,0.0284 -0.1201063,0.0506 -0.1351543,0.0506 -0.016253,0 -0.029208,-0.11096 -0.029208,-0.25482 v -0.25472 l 0.1189478,-0.0608 c 0.0654,-0.0332 0.1263061,-0.0607 0.1353349,-0.0607 z m -0.4870037,0.21884 c 0.0065,-7.1e-4 0.011046,-2e-5 0.013076,0.002 0.009,0.008 0.022245,0.12412 0.031576,0.25757 l 0.01657,0.2427 h -0.076919 v -4.8e-4 c -0.042375,0 -0.098262,0.008 -0.1244457,0.0186 -0.042163,0.0156 -0.0476,-0.0141 -0.0476,-0.20949 0,-0.22423 0.00139,-0.22857 0.092944,-0.27588 0.038328,-0.0203 0.075297,-0.0331 0.094798,-0.035 z m 0.5032471,0.52681 v 0.28262 l 5.033e-4,0.28261 -0.1063823,0.0507 -0.1062346,0.0507 0.00871,-0.27639 0.00812,-0.27636 0.097606,-0.0569 z m -0.469011,0.20498 c 0.010322,2.3e-4 0.018267,0.002 0.022216,0.006 0.010473,0.0107 0.02733,0.11742 0.039369,0.23724 l 0.020541,0.21691 H 3.5484848 3.4414477 v -0.21124 c 0,-0.19144 0.00645,-0.21432 0.067667,-0.23719 0.023213,-0.008 0.047071,-0.0126 0.064282,-0.0122 z m 0.4512384,0.58081 c 0.00993,0 0.017773,0.12137 0.017773,0.26966 0,0.26816 -5.033e-4,0.26982 -0.088719,0.31539 h 3.595e-4 c -0.048847,0.0242 -0.095886,0.0459 -0.1052148,0.0459 -0.00964,0 -0.016536,-0.11874 -0.016536,-0.26396 0,-0.25941 0.00142,-0.26471 0.087153,-0.31539 0.047975,-0.029 0.094946,-0.0516 0.1051795,-0.0516 z m -0.4343036,0.1227 c 0.059772,-0.001 0.061477,0.055 0.061477,0.26787 0,0.19611 -0.010461,0.27062 -0.037549,0.27078 v -1.5e-4 c -0.020737,2.5e-4 -0.068003,0.008 -0.1051444,0.0186 -0.067658,0.0178 -0.067667,0.0136 -0.067667,-0.25228 0,-0.25501 0.00395,-0.27158 0.067667,-0.28844 0.034918,-0.009 0.061293,-0.0161 0.081217,-0.0165 z m 0.4520762,0.62984 v 0.282 0.282 l -0.094618,0.033 2.093e-4,-4e-5 c -0.052096,0.0191 -0.1003213,0.033 -0.1051414,0.033 -0.00602,0 -0.010854,-0.11922 -0.010854,-0.26488 v -0.26485 l 0.1052167,-0.0501 z m -0.3905991,0.1152 v 0.25738 4.8e-4 c 0,0.25437 -5.033e-4,0.25738 -0.076009,0.25738 -0.095197,0 -0.1099268,-0.0353 -0.098186,-0.28838 0.0087,-0.20213 0.011398,-0.20754 0.091485,-0.21688 z"
       id="path4157"
       inkscape:connector-curvature="0"
       sodipodi:nodetypes="cccccccsscccscccccccccscscccccsccssccccscccccccscccccsccccccccccccccccccscccsscccccccccccsccccccccccccccccccscccssccsscsscscccsccccccccsscccccssccc" />
    <path
       style="fill:#78bb3e;fill-opacity:1;stroke:none;stroke-width:0.09982587;stroke-opacity:1"
       d="m 1.8926669,290.88707 c -0.024289,0 -1.27545109,0.93404 -1.27545109,0.95179 0,0.008 0.0264741,0.14593 0.0587098,0.30557 0.149822,0.74005 0.28604843,2.31356 0.36168129,4.18078 0.00582,0.14372 0.010386,0.26253 0.015043,0.38241 h 0.8565521 v -2.78389 c 0,-1.67011 -0.00721,-3.03666 -0.016534,-3.03666 z"
       id="path4159"
       inkscape:connector-curvature="0"
       sodipodi:nodetypes="sscsccss" />
  </g>
</svg>
