<?xml version="1.0" encoding="UTF-8" standalone="no"?>
<!-- Created with Inkscape (http://www.inkscape.org/) -->

<svg
   xmlns:dc="http://purl.org/dc/elements/1.1/"
   xmlns:cc="http://creativecommons.org/ns#"
   xmlns:rdf="http://www.w3.org/1999/02/22-rdf-syntax-ns#"
   xmlns:svg="http://www.w3.org/2000/svg"
   xmlns="http://www.w3.org/2000/svg"
   xmlns:sodipodi="http://sodipodi.sourceforge.net/DTD/sodipodi-0.dtd"
   xmlns:inkscape="http://www.inkscape.org/namespaces/inkscape"
   width="150"
   height="150"
   viewBox="0 0 8.4666665 8.4666669"
   version="1.1"
   id="svg4167"
   inkscape:version="0.92.1 r15371"
   sodipodi:docname="industry-1.svg">
  <defs
     id="defs4161" />
  <sodipodi:namedview
     id="base"
     pagecolor="#ffffff"
     bordercolor="#666666"
     borderopacity="1.0"
     inkscape:pageopacity="0.0"
     inkscape:pageshadow="2"
     inkscape:zoom="15.839192"
     inkscape:cx="16.32774"
     inkscape:cy="14.447379"
     inkscape:document-units="mm"
     inkscape:current-layer="layer1"
     showgrid="false"
     units="px"
     inkscape:window-width="1920"
     inkscape:window-height="1027"
     inkscape:window-x="-8"
     inkscape:window-y="-8"
     inkscape:window-maximized="1" />
  <metadata
     id="metadata4164">
    <rdf:RDF>
      <cc:Work
         rdf:about="">
        <dc:format>image/svg+xml</dc:format>
        <dc:type
           rdf:resource="http://purl.org/dc/dcmitype/StillImage" />
        <dc:title></dc:title>
      </cc:Work>
    </rdf:RDF>
  </metadata>
  <g
     inkscape:label="Layer 1"
     inkscape:groupmode="layer"
     id="layer1"
     transform="translate(0,-288.53332)">
    <path
       style="fill:#78bb3e;fill-opacity:1;stroke-width:1"
       d="m 1.4217531,289.69221 -0.1897185,0.22086 c -0.1043423,0.12146 -0.25240946,0.28713 -0.32902789,0.36811 l -0.13928553,0.14721 -0.0232142,0.58077 -0.0231923,0.58074 h -0.0949718 c -0.0572098,0 -0.12690041,0.032 -0.17527741,0.0803 l -0.0803056,0.0803 v 1.91552 c 0,1.39727 -0.001883,1.7782 -0.0278935,1.87961 H 3.7203132 l -0.0084,-1.4889 c -0.00782,-1.38541 -0.013145,-1.51267 -0.065437,-1.55988 -0.1137388,-0.10267 -1.5828182,-0.90698 -1.6567012,-0.90698 -0.073459,0 -0.076605,-0.0118 -0.096388,-0.35173 -0.01125,-0.19345 -0.028765,-0.57256 -0.038938,-0.84249 -0.010172,-0.26993 -0.025827,-0.53863 -0.034775,-0.59712 -0.016213,-0.10598 -0.016959,-0.10634 -0.2071083,-0.10634 z m -0.49877064,3.23916 H 1.3156011 1.7082212 v 0.37626 0.37626 H 1.3156011 0.92298246 v -0.37626 z m 1.37416894,0 h 0.3926187 0.3926422 v 0.37626 0.37626 H 2.6897701 2.2971514 v -0.37626 z m -1.37416894,1.47027 0.38443154,0.009 0.3844536,0.009 0.00922,0.38444 0.00919,0.38446 H 1.3166271 0.92297358 v -0.39366 z m 1.37416894,0 0.3844537,0.009 0.3844314,0.009 0.00922,0.38444 0.00922,0.38446 H 2.6908269 2.2971498 v -0.39366 z"
       id="path4069"
       inkscape:connector-curvature="0" />
    <path
       style="fill:#333333;fill-opacity:1;stroke-width:1"
       d="m 3.4812183,291.5899 c -0.1222185,0 -0.2121322,0.10824 -0.215633,0.25952 -0.00322,0.13961 -0.00315,0.1397 0.2258007,0.26986 0.1259665,0.0717 0.2640619,0.16217 0.3068702,0.20123 0.1653406,0.15086 0.1675401,0.17429 0.1675401,1.77331 v 1.45185 h 1.2433178 v -1.43489 c 0,-0.9647 -0.011916,-1.49693 -0.03462,-1.54678 -0.039037,-0.0856 -1.5833794,-0.9741 -1.6932758,-0.9741 z m 0.7136177,1.34147 h 0.3926187 0.3926199 v 0.37626 0.37626 H 4.5874547 4.194836 v -0.37626 z m 0,1.47027 0.3844535,0.009 0.3844316,0.009 0.00922,0.38444 0.00922,0.38446 H 4.5884879 4.1948345 v -0.39366 z"
       id="path4067"
       inkscape:connector-curvature="0" />
    <path
       style="fill:#333333;fill-opacity:1;stroke-width:1"
       d="m 4.9648239,291.5899 c -0.096296,0 -0.1732317,0.0614 -0.2103248,0.16779 -0.066277,0.19012 -0.05259,0.21053 0.2622186,0.39069 0.4489207,0.2569 0.4214358,0.13025 0.4214358,1.94105 v 1.45623 h 1.2432956 v -1.43488 c 0,-0.99042 -0.011641,-1.49633 -0.035609,-1.54895 -0.024708,-0.0542 -0.2791573,-0.21497 -0.8310609,-0.52504 -0.4375023,-0.24578 -0.8199889,-0.44689 -0.8499553,-0.44689 z m 0.7023469,1.34147 h 0.3926188 0.3926422 v 0.37626 0.37626 H 6.0597896 5.6671708 v -0.37626 z m 0,1.47027 0.3844537,0.009 0.3844315,0.009 0.00922,0.38444 0.00922,0.38446 H 6.0608462 5.6671693 v -0.39366 z"
       id="path4065"
       inkscape:connector-curvature="0" />
    <path
       style="fill:#333333;fill-opacity:1;stroke-width:1"
       d="m 6.425416,291.5899 c -0.117585,0 -0.2020238,0.11309 -0.2020238,0.27041 v 0.13954 l 0.2647384,0.1459 c 0.4385932,0.24172 0.4044724,0.0865 0.4150915,1.88988 l 0.00892,1.51004 h 1.2666905 c -0.024509,-0.0885 -0.025036,-0.39483 -0.025036,-1.45493 0,-0.88135 -0.012745,-1.51466 -0.031155,-1.54907 -0.040231,-0.0752 -1.6033978,-0.95177 -1.6972138,-0.95177 z m 0.6813827,1.34147 H 7.499417 7.8920373 v 0.37626 0.37626 H 7.499417 7.1067987 v -0.37626 z m 0,1.47027 0.3844314,0.009 0.3844536,0.009 0.00922,0.38444 0.00922,0.38446 H 7.5004563 7.106803 v -0.39366 z"
       id="path4063"
       inkscape:connector-curvature="0" />
  </g>
</svg>
