<?xml version="1.0" encoding="UTF-8" standalone="no"?>
<!-- Created with Inkscape (http://www.inkscape.org/) -->

<svg
   xmlns:dc="http://purl.org/dc/elements/1.1/"
   xmlns:cc="http://creativecommons.org/ns#"
   xmlns:rdf="http://www.w3.org/1999/02/22-rdf-syntax-ns#"
   xmlns:svg="http://www.w3.org/2000/svg"
   xmlns="http://www.w3.org/2000/svg"
   xmlns:sodipodi="http://sodipodi.sourceforge.net/DTD/sodipodi-0.dtd"
   xmlns:inkscape="http://www.inkscape.org/namespaces/inkscape"
   width="150"
   height="150"
   viewBox="0 0 8.4666665 8.4666669"
   version="1.1"
   id="svg4167"
   inkscape:version="0.92.1 r15371"
   sodipodi:docname="key-individual-2.svg">
  <defs
     id="defs4161" />
  <sodipodi:namedview
     id="base"
     pagecolor="#ffffff"
     bordercolor="#666666"
     borderopacity="1.0"
     inkscape:pageopacity="0.0"
     inkscape:pageshadow="2"
     inkscape:zoom="22.4"
     inkscape:cx="13.207167"
     inkscape:cy="14.566597"
     inkscape:document-units="mm"
     inkscape:current-layer="layer1"
     showgrid="false"
     units="px"
     inkscape:window-width="1920"
     inkscape:window-height="1027"
     inkscape:window-x="-8"
     inkscape:window-y="-8"
     inkscape:window-maximized="1" />
  <metadata
     id="metadata4164">
    <rdf:RDF>
      <cc:Work
         rdf:about="">
        <dc:format>image/svg+xml</dc:format>
        <dc:type
           rdf:resource="http://purl.org/dc/dcmitype/StillImage" />
        <dc:title></dc:title>
      </cc:Work>
    </rdf:RDF>
  </metadata>
  <g
     inkscape:label="Layer 1"
     inkscape:groupmode="layer"
     id="layer1"
     transform="translate(0,-288.53332)">
    <path
       style="opacity:1;vector-effect:none;fill:#333333;fill-opacity:1;fill-rule:nonzero;stroke:none;stroke-width:0.26458332;stroke-linecap:butt;stroke-linejoin:miter;stroke-miterlimit:4;stroke-dasharray:none;stroke-dashoffset:13.30393696;stroke-opacity:1;paint-order:stroke fill markers"
       d="m 4.2135481,294.89167 a 3.8132894,0.80986165 0 0 0 -3.81328506,0.80986 3.8132894,0.80986165 0 0 0 3.81328506,0.80986 3.8132894,0.80986165 0 0 0 3.8132855,-0.80986 3.8132894,0.80986165 0 0 0 -3.8132855,-0.80986 z m 0.023539,0.17993 a 2.8828504,0.55492901 0 0 1 2.8828389,0.55494 2.8828504,0.55492901 0 0 1 -2.8828389,0.55493 2.8828504,0.55492901 0 0 1 -2.8828669,-0.55493 2.8828504,0.55492901 0 0 1 2.8828669,-0.55494 z"
       id="ellipse4113"
       inkscape:connector-curvature="0" />
    <ellipse
       style="opacity:1;vector-effect:none;fill:#333333;fill-opacity:1;fill-rule:nonzero;stroke:none;stroke-width:0.26458332;stroke-linecap:butt;stroke-linejoin:miter;stroke-miterlimit:4;stroke-dasharray:none;stroke-dashoffset:13.30393696;stroke-opacity:1;paint-order:stroke fill markers"
       id="path4108"
       cx="4.2135386"
       cy="295.5177"
       rx="1.6076987"
       ry="0.26395056" />
    <path
       style="fill:#78bb3e;fill-opacity:1;stroke-width:0.99999994"
       d="m 3.8429883,295.50784 c -0.05638,-0.0358 -0.1007333,-0.0902 -0.1335071,-0.16379 -0.015861,-0.0357 -0.060013,-0.27181 -0.1408231,-0.75335 -0.064746,-0.38579 -0.1288318,-0.73511 -0.1424143,-0.77624 -0.018477,-0.056 -0.033909,-0.0818 -0.061291,-0.10272 -0.084377,-0.0644 -0.2035196,-0.28914 -0.2486601,-0.46912 -0.047533,-0.18953 -0.050886,-0.24959 -0.050886,-0.91153 0,-0.70328 4.724e-4,-0.7089 0.07433,-0.85855 0.06055,-0.12271 0.1568583,-0.21585 0.2882613,-0.27875 0.056769,-0.0272 0.1476069,-0.0629 0.20186,-0.0794 0.098631,-0.03 0.098688,-0.03 0.5066183,-0.0339 0.4452014,-0.004 0.5131366,10e-4 0.6750243,0.0595 0.2019732,0.072 0.3275409,0.17039 0.4038658,0.31624 0.083285,0.15916 0.080445,0.1278 0.080445,0.88772 0,0.61151 -0.002,0.6894 -0.019797,0.77816 -0.026371,0.13141 -0.058014,0.23704 -0.096501,0.32213 -0.043726,0.0967 -0.1492187,0.25239 -0.1806961,0.26673 -0.028548,0.0131 -0.060857,0.0874 -0.086825,0.19973 -0.00842,0.0364 -0.064962,0.36403 -0.1256385,0.72791 -0.1201747,0.72068 -0.1242626,0.73676 -0.2088667,0.82136 -0.077733,0.0777 -0.083535,0.0789 -0.4018699,0.0789 h -0.283903 z m 0.1439016,-4.63843 c -0.3282589,-0.0688 -0.5914245,-0.31012 -0.6930385,-0.63538 -0.022293,-0.0714 -0.025681,-0.10465 -0.025681,-0.25209 0,-0.14761 0.00338,-0.18061 0.02569,-0.2517 0.081338,-0.25903 0.2467211,-0.4515 0.4849323,-0.56436 0.23861,-0.11301 0.526659,-0.11301 0.7652692,0 0.3235194,0.15327 0.5161031,0.4578 0.5161031,0.81606 0,0.40509 -0.2481532,0.74025 -0.6411728,0.86596 -0.06083,0.0194 -0.1085067,0.0253 -0.2301635,0.0281 -0.084394,0.001 -0.1752674,-8.5e-4 -0.2019403,-0.007 z"
       id="path4106"
       inkscape:connector-curvature="0" />
  </g>
</svg>
