<?xml version="1.0" encoding="UTF-8" standalone="no"?>
<!-- Created with Inkscape (http://www.inkscape.org/) -->

<svg
   xmlns:dc="http://purl.org/dc/elements/1.1/"
   xmlns:cc="http://creativecommons.org/ns#"
   xmlns:rdf="http://www.w3.org/1999/02/22-rdf-syntax-ns#"
   xmlns:svg="http://www.w3.org/2000/svg"
   xmlns="http://www.w3.org/2000/svg"
   xmlns:sodipodi="http://sodipodi.sourceforge.net/DTD/sodipodi-0.dtd"
   xmlns:inkscape="http://www.inkscape.org/namespaces/inkscape"
   width="130"
   height="60"
   viewBox="0 0 34.395833 15.875"
   version="1.1"
   id="svg8"
   inkscape:version="0.92.1 r15371"
   sodipodi:docname="Ninja-logo.svg">
  <defs
     id="defs2" />
  <sodipodi:namedview
     id="base"
     pagecolor="#ffffff"
     bordercolor="#666666"
     borderopacity="1.0"
     inkscape:pageopacity="0.0"
     inkscape:pageshadow="2"
     inkscape:zoom="4.668595"
     inkscape:cx="62.977194"
     inkscape:cy="35.806306"
     inkscape:document-units="mm"
     inkscape:current-layer="layer1"
     showgrid="false"
     showguides="true"
     inkscape:guide-bbox="true"
     units="px"
     inkscape:window-width="1920"
     inkscape:window-height="1027"
     inkscape:window-x="-8"
     inkscape:window-y="-8"
     inkscape:window-maximized="1" />
  <metadata
     id="metadata5">
    <rdf:RDF>
      <cc:Work
         rdf:about="">
        <dc:format>image/svg+xml</dc:format>
        <dc:type
           rdf:resource="http://purl.org/dc/dcmitype/StillImage" />
        <dc:title></dc:title>
      </cc:Work>
    </rdf:RDF>
  </metadata>
  <g
     inkscape:label="Layer 1"
     inkscape:groupmode="layer"
     id="layer1"
     transform="translate(0,-281.12498)">
    <path
       style="fill:#006a4d;fill-opacity:1;stroke-width:1"
       d="m 23.227189,290.01445 v -4.69407 h 1.106248 1.106247 v 4.69407 6.43695 h -1.106247 -1.106248 z m 6.36839,1.71502 c -0.555228,-0.0814 -0.773304,-0.14289 -1.115502,-0.31485 -0.659537,-0.33145 -1.280956,-1.01878 -1.549503,-1.71384 -0.207817,-0.53788 -0.275829,-1.35501 -0.161785,-1.94366 0.250241,-1.29158 1.066447,-2.21514 2.228817,-2.52197 0.546036,-0.14409 1.169254,-0.15745 1.600441,-0.0341 0.386765,0.11068 0.830752,0.36647 1.058266,0.60988 0.03987,0.0427 0.08359,0.0776 0.09718,0.0776 0.01353,0 0.02471,-0.12781 0.02471,-0.28403 v -0.28404 h 1.106248 1.106243 v 3.09378 3.09378 l -1.106256,0.009 -1.106257,0.009 10e-6,-0.32141 c 7e-6,-0.17677 -0.01131,-0.32141 -0.0252,-0.32141 -0.01388,0 -0.08099,0.0661 -0.14914,0.147 -0.138519,0.1643 -0.451049,0.38311 -0.677755,0.47456 -0.340748,0.13741 -0.424217,0.15882 -0.786488,0.20117 -0.37984,0.0444 -0.405126,0.0456 -0.543997,0.0252 z m 1.418941,-2.02542 c 0.741819,-0.36664 1.035726,-1.2256 0.666166,-1.94693 -0.276807,-0.5403 -0.941044,-0.86966 -1.510965,-0.74923 -0.57221,0.12096 -1.005799,0.53869 -1.154415,1.11233 -0.05873,0.22665 -0.05911,0.33176 -0.0022,0.57343 0.125994,0.53446 0.463624,0.89633 1.01594,1.08889 0.111962,0.0391 0.225256,0.0502 0.451204,0.0442 0.281981,-0.007 0.316903,-0.0154 0.534208,-0.12267 z m -29.4562978,1.81244 -1.14361886,-0.009 v -4.63391 -4.63392 h 1.15033926 1.150339 l 0.280132,0.35131 c 0.1540731,0.19321 0.6951465,0.88275 1.2023868,1.5323 0.5072395,0.64954 1.3323555,1.7057 1.833592,2.34703 0.501237,0.64132 0.9505275,1.2165 0.9984233,1.27816 0.047898,0.0617 0.099341,0.11205 0.1143183,0.11205 0.016122,0 0.03034,-1.14276 0.03486,-2.80299 l 0.00762,-2.80299 1.1884675,-0.009 1.1884675,-0.009 v 4.62963 c 0,2.5463 -0.0057,4.63525 -0.01251,4.6421 -0.0069,0.007 -0.5483786,0.009 -1.2034163,0.003 l -1.1909791,-0.009 -0.1783133,-0.22992 c -0.2088358,-0.2671 -1.4541254,-1.8622 -2.0935064,-2.67941 -0.2444489,-0.31244 -0.6548759,-0.83716 -0.9120612,-1.16604 -0.2571854,-0.3289 -0.6337557,-0.81038 -0.8368244,-1.06996 -0.2030683,-0.25959 -0.3803973,-0.4608 -0.3940637,-0.44715 -0.013672,0.0137 -0.028283,1.28224 -0.032479,2.81903 l -0.00762,2.79418 z m 9.7693498,-3.08665 v -3.10946 h 1.106246 1.106245 v 3.10946 3.10944 h -1.106245 -1.106246 z m 4.836088,3.08665 -1.098772,-0.009 v -3.09413 -3.09414 h 1.106248 1.106246 v 0.3588 c 0,0.19732 0.01182,0.35877 0.02642,0.35877 0.01456,0 0.07201,-0.0504 0.127741,-0.11204 0.260838,-0.28862 0.624128,-0.52079 0.98802,-0.63141 0.538767,-0.16379 1.313267,-0.147 1.835737,0.0397 0.380606,0.13604 0.570867,0.25331 0.851923,0.52509 0.188847,0.18262 0.255309,0.2726 0.353342,0.47838 0.208703,0.43808 0.211898,0.48301 0.211898,2.97813 v 2.19363 H 20.56726 19.462057 l -0.0089,-1.92098 c -0.0086,-1.83317 -0.01165,-1.92806 -0.06831,-2.07587 -0.09865,-0.25718 -0.226296,-0.41026 -0.422365,-0.50653 -0.160791,-0.079 -0.202316,-0.086 -0.504108,-0.086 -0.310214,0 -0.340129,0.005 -0.527008,0.097 -0.219462,0.10742 -0.375543,0.26101 -0.485111,0.47752 -0.153081,0.3025 -0.150614,0.2701 -0.167712,2.2061 l -0.0161,1.82382 z"
       id="path3887"
       inkscape:connector-curvature="0"
       sodipodi:nodetypes="ccccccccccsscsccssccccccccsccscccccccccccccccccccccsscccscccsssssscccccccccccccccccsssssscscccsccsccscc" />
    <circle
       style="opacity:1;vector-effect:none;fill:#006a4d;fill-opacity:1;fill-rule:nonzero;stroke:none;stroke-width:0.52899998;stroke-linecap:butt;stroke-linejoin:miter;stroke-miterlimit:4;stroke-dasharray:none;stroke-dashoffset:13.30393696;stroke-opacity:1;paint-order:stroke fill markers"
       id="path3905"
       cx="24.320253"
       cy="282.71191"
       r="1.2345494" />
    <circle
       r="1.2345494"
       cy="282.71191"
       cx="12.415009"
       id="circle3911"
       style="opacity:1;vector-effect:none;fill:#006a4d;fill-opacity:1;fill-rule:nonzero;stroke:none;stroke-width:0.52899998;stroke-linecap:butt;stroke-linejoin:miter;stroke-miterlimit:4;stroke-dasharray:none;stroke-dashoffset:13.30393696;stroke-opacity:1;paint-order:stroke fill markers" />
    <text
       xml:space="preserve"
       style="font-style:normal;font-variant:normal;font-weight:normal;font-stretch:normal;font-size:5.66464424px;line-height:1.25;font-family:'Futura Bk BT';-inkscape-font-specification:'Futura Bk BT, Normal';font-variant-ligatures:normal;font-variant-caps:normal;font-variant-numeric:normal;font-feature-settings:normal;text-align:start;letter-spacing:0px;word-spacing:0px;writing-mode:lr-tb;text-anchor:start;fill:#7bc041;fill-opacity:1;stroke:none;stroke-width:0.26458332"
       x="0.047121268"
       y="296.31082"
       id="text3930"><tspan
         sodipodi:role="line"
         id="tspan3928"
         x="0.047121268"
         y="296.31082"
         style="font-style:normal;font-variant:normal;font-weight:normal;font-stretch:normal;font-size:5.66464424px;font-family:'Futura Bk BT';-inkscape-font-specification:'Futura Bk BT, Normal';font-variant-ligatures:normal;font-variant-caps:normal;font-variant-numeric:normal;font-feature-settings:normal;text-align:start;writing-mode:lr-tb;text-anchor:start;fill:#7bc041;fill-opacity:1;stroke-width:0.26458332">Research</tspan></text>
  </g>
</svg>
