<?xml version="1.0" encoding="UTF-8" standalone="no"?>
<!-- Created with Inkscape (http://www.inkscape.org/) -->

<svg
   xmlns:dc="http://purl.org/dc/elements/1.1/"
   xmlns:cc="http://creativecommons.org/ns#"
   xmlns:rdf="http://www.w3.org/1999/02/22-rdf-syntax-ns#"
   xmlns:svg="http://www.w3.org/2000/svg"
   xmlns="http://www.w3.org/2000/svg"
   xmlns:sodipodi="http://sodipodi.sourceforge.net/DTD/sodipodi-0.dtd"
   xmlns:inkscape="http://www.inkscape.org/namespaces/inkscape"
   width="32mm"
   height="32mm"
   viewBox="0 0 32 32"
   version="1.1"
   id="svg3961"
   inkscape:version="0.92.1 r15371"
   sodipodi:docname="password.svg">
  <defs
     id="defs3955" />
  <sodipodi:namedview
     id="base"
     pagecolor="#ffffff"
     bordercolor="#666666"
     borderopacity="1.0"
     inkscape:pageopacity="0.0"
     inkscape:pageshadow="2"
     inkscape:zoom="3.959798"
     inkscape:cx="54.373957"
     inkscape:cy="35.8704"
     inkscape:document-units="mm"
     inkscape:current-layer="layer1"
     showgrid="false"
     inkscape:window-width="1920"
     inkscape:window-height="1027"
     inkscape:window-x="-8"
     inkscape:window-y="-8"
     inkscape:window-maximized="1" />
  <metadata
     id="metadata3958">
    <rdf:RDF>
      <cc:Work
         rdf:about="">
        <dc:format>image/svg+xml</dc:format>
        <dc:type
           rdf:resource="http://purl.org/dc/dcmitype/StillImage" />
        <dc:title></dc:title>
      </cc:Work>
    </rdf:RDF>
  </metadata>
  <g
     inkscape:label="Layer 1"
     inkscape:groupmode="layer"
     id="layer1"
     transform="translate(0,-265)">
    <path
       id="path3872"
       d="m 26.815799,278.88682 c 0.11271,-0.64559 0.17489,-1.30969 0.17489,-1.98861 0,-6.17167 -4.87601,-11.1932 -10.86935,-11.1932 -5.993611,0 -10.8698808,5.02153 -10.8698808,11.1932 0,0.67892 0.0624,1.34249 0.17542,1.98861 -0.94377,0.60272 -1.57136,1.65655 -1.57136,2.86014 v 10.95772 c 0,1.87431 1.5195,3.39354 3.39328,3.39354 H 24.993609 c 1.87325,0 3.392489,-1.51923 3.392489,-3.39354 h 0.001 v -10.95772 c 0,-1.20332 -0.627059,-2.25742 -1.57136,-2.86014 z m -9.19718,9.56786 v 2.38124 c 0,0.82762 -0.67046,1.49808 -1.49781,1.49808 -0.82735,0 -1.4978,-0.67046 -1.4978,-1.49808 v -2.3823 c -0.96071,-0.52943 -1.61238,-1.55099 -1.61238,-2.72574 0,-1.71767 1.39251,-3.11044 3.11071,-3.11044 1.71821,0 3.11097,1.39277 3.11097,3.11044 0,1.17528 -0.6522,2.19763 -1.61369,2.7268 z m 5.23637,-10.10153 H 9.3874285 c -0.0923,-0.46963 -0.1415502,-0.95673 -0.1415502,-1.45494 0,-3.96955 3.0842507,-7.19878 6.8754607,-7.19878 3.79095,0 6.87493,3.22897 6.87493,7.19878 0,0.49821 -0.0487,0.98531 -0.14128,1.45494 z"
       inkscape:connector-curvature="0"
       style="fill:#9f9f9f;fill-opacity:1;stroke-width:0.26458332" />
  </g>
</svg>
