<?xml version="1.0" encoding="UTF-8" standalone="no"?>
<!-- Created with Inkscape (http://www.inkscape.org/) -->

<svg
   xmlns:dc="http://purl.org/dc/elements/1.1/"
   xmlns:cc="http://creativecommons.org/ns#"
   xmlns:rdf="http://www.w3.org/1999/02/22-rdf-syntax-ns#"
   xmlns:svg="http://www.w3.org/2000/svg"
   xmlns="http://www.w3.org/2000/svg"
   xmlns:sodipodi="http://sodipodi.sourceforge.net/DTD/sodipodi-0.dtd"
   xmlns:inkscape="http://www.inkscape.org/namespaces/inkscape"
   width="36"
   height="36"
   viewBox="0 0 9.5249998 9.5250003"
   version="1.1"
   id="svg8"
   inkscape:version="0.92.1 r15371"
   sodipodi:docname="upload to cloud.svg">
  <defs
     id="defs2" />
  <sodipodi:namedview
     id="base"
     pagecolor="#ffffff"
     bordercolor="#666666"
     borderopacity="1.0"
     inkscape:pageopacity="0.0"
     inkscape:pageshadow="2"
     inkscape:zoom="11.2"
     inkscape:cx="49.954184"
     inkscape:cy="18.629737"
     inkscape:document-units="mm"
     inkscape:current-layer="layer1"
     showgrid="false"
     units="px"
     inkscape:window-width="1920"
     inkscape:window-height="1027"
     inkscape:window-x="-8"
     inkscape:window-y="-8"
     inkscape:window-maximized="1" />
  <metadata
     id="metadata5">
    <rdf:RDF>
      <cc:Work
         rdf:about="">
        <dc:format>image/svg+xml</dc:format>
        <dc:type
           rdf:resource="http://purl.org/dc/dcmitype/StillImage" />
        <dc:title></dc:title>
      </cc:Work>
    </rdf:RDF>
  </metadata>
  <g
     inkscape:label="Layer 1"
     inkscape:groupmode="layer"
     id="layer1"
     transform="translate(0,-287.47498)">
    <path
       style="fill:#3399db;fill-opacity:1;stroke-width:0.99999994"
       d="m 5.6292018,289.09247 c -0.00625,0 -0.012396,1e-4 -0.01864,1.2e-4 -1.561e-4,0 -3.122e-4,0 -4.591e-4,0 -4.592e-4,0 -9.183e-4,1e-5 -0.00184,1e-5 -0.074246,3.1e-4 -0.1471984,0.002 -0.2122491,0.007 -0.4210087,0.0269 -0.8372336,0.16751 -1.2117027,0.40907 -0.1792577,0.11567 -0.3928473,0.29723 -0.5161538,0.43882 -0.059275,0.0681 -0.057847,0.0675 -0.1281501,0.0511 -0.1915295,-0.0443 -0.4360536,-0.0467 -0.6441202,-0.006 -0.4285197,0.0836 -0.8071118,0.3357 -1.045011,0.69596 -0.080784,0.12233 -0.1245323,0.21053 -0.1743086,0.35142 l -0.024975,0.0707 -0.046338,0.0161 c -0.2339463,0.0812 -0.4454791,0.1923 -0.61566499,0.32326 -0.3276681,0.25214 -0.56351511,0.57401 -0.7042079,0.96102 -0.0365912,0.10076 -0.0796726,0.26505 -0.0900488,0.34363 -0.0352134,0.26674 -0.0253885,0.61745 0.0230467,0.82199 0.11732379,0.49537 0.40823187,0.9272 0.82264319,1.22115 0.2949202,0.2092 0.6677459,0.34891 0.9895328,0.37084 0.012901,9.2e-4 0.048128,0.002 0.096168,0.002 0.00367,3e-4 0.00808,9.2e-4 0.011614,9.2e-4 h 1.39e-5 c 0.00854,4.5e-4 0.079471,10e-4 0.1815624,0.002 0.1124302,9.2e-4 0.2583201,0.002 0.4493676,0.002 0.043431,5e-5 0.065661,0 0.1033811,5e-5 l 0.5204601,9.2e-4 0.00519,10e-6 h 0.00322 2.616e-4 v -9.2e-4 l 0.0023,-0.008 c 2.479e-4,-2.8e-4 4.224e-4,-4.5e-4 4.591e-4,-9.2e-4 1.193e-4,-3.1e-4 2.387e-4,-10e-4 3.535e-4,-0.002 l 4.085e-4,-0.002 c 9.183e-4,-0.004 0.00138,-0.0458 0.00184,-0.10457 9.183e-4,-0.082 0.00138,-0.19979 0.00138,-0.33481 0,-0.22242 -9.181e-4,-0.3378 -0.00322,-0.39389 l -2.524e-4,-0.0578 -0.6434453,-0.004 c -0.6869686,-0.004 -0.6678009,-0.004 -0.805156,-0.0389 -0.2087093,-0.054 -0.4032461,-0.16888 -0.5540668,-0.3271 -0.2705554,-0.28382 -0.3750798,-0.67515 -0.2881024,-1.07862 0.023138,-0.10743 0.052209,-0.18957 0.1048823,-0.29645 0.060694,-0.12318 0.1185961,-0.20328 0.2218305,-0.30694 0.1282649,-0.12879 0.2650461,-0.21433 0.430526,-0.26925 0.17171,-0.057 0.3458855,-0.074 0.5195099,-0.0508 0.083006,0.0107 0.09178,0.008 0.080684,-0.0302 -0.013865,-0.0475 -0.026721,-0.14637 -0.026721,-0.20531 -4.5e-6,-0.0769 0.014921,-0.16262 0.041411,-0.23772 0.03985,-0.11304 0.084498,-0.182 0.1804697,-0.27857 0.1279711,-0.12878 0.2739758,-0.20692 0.4661252,-0.24944 0.056727,-0.0126 0.090306,-0.0155 0.1777427,-0.0156 0.064385,-6e-5 0.1240869,0.004 0.1482312,0.008 0.1891147,0.0414 0.322875,0.12192 0.431853,0.25989 0.012809,0.0162 0.024562,0.0249 0.030485,0.0227 0.00533,-0.002 0.022955,-0.0351 0.039299,-0.0736 0.060042,-0.14151 0.1617473,-0.312 0.2607166,-0.43706 0.02493,-0.0315 0.089471,-0.10135 0.1434382,-0.15527 0.2695866,-0.26922 0.5848956,-0.42684 0.9706589,-0.48523 0.1189359,-0.018 0.3381127,-0.0246 0.4552673,-0.0136 0.616358,0.0576 1.1142669,0.39508 1.3776695,0.9337 0.1268232,0.25932 0.1955008,0.53951 0.2141313,0.87365 0.00367,0.0625 0.00693,0.0829 0.014645,0.0868 0.00556,0.002 0.04743,0.008 0.093061,0.0125 0.1449442,0.013 0.2606021,0.0438 0.3825496,0.10207 0.2875285,0.13734 0.4922344,0.39608 0.5727799,0.72394 0.052169,0.21236 0.055695,0.46218 0.00909,0.64466 -0.074201,0.29064 -0.2553084,0.54134 -0.5076832,0.70273 -0.08656,0.0553 -0.227551,0.1165 -0.3274753,0.14186 -0.1271124,0.0323 -0.1194546,0.032 -0.6299705,0.0347 -0.4416227,0.002 -0.4858713,0.004 -0.4935383,0.0138 -0.00652,0.008 -0.00841,0.10815 -0.00841,0.4439 0,0.23801 0.00184,0.43754 0.00414,0.4434 9.183e-4,0.002 0.00322,0.004 0.00932,0.005 l -2.76e-5,0.007 0.00367,-3e-5 v 4.3e-4 l 0.3016046,-0.001 c 0.049289,7e-5 0.092294,2e-4 0.1589653,2e-4 0.506306,5e-5 0.6194249,-0.005 0.7656867,-0.0315 0.2833415,-0.0521 0.5833944,-0.18324 0.821996,-0.35928 0.4173865,-0.30791 0.7078257,-0.75645 0.8117855,-1.25368 0.015793,-0.0756 0.025939,-0.1858 0.030163,-0.30461 0.00367,-0.0745 0.00414,-0.14781 9.182e-4,-0.21982 -0.0023,-0.0924 -0.00859,-0.18082 -0.01864,-0.25334 -0.010326,-0.0745 -0.04704,-0.22068 -0.078654,-0.31331 -0.1034967,-0.30324 -0.2590089,-0.55758 -0.4793748,-0.78404 -0.1547828,-0.15906 -0.3159012,-0.28069 -0.5054566,-0.38154 -0.080776,-0.0429 -0.070037,-0.0248 -0.1078299,-0.18195 -0.1201065,-0.4993 -0.4158668,-0.98945 -0.8045729,-1.3334 -0.4432432,-0.39219 -0.9869756,-0.62639 -1.5333752,-0.66045 -0.074839,-0.005 -0.1571793,-0.007 -0.238597,-0.007 z m -0.6777543,2.71512 c -0.016115,0 -1.6616719,1.6492 -1.6536009,1.65727 0.00138,0.001 0.01662,0.002 0.0421,0.004 0.035902,0.002 0.1230495,0.004 0.2901546,0.005 0.015793,10e-5 0.028051,2.5e-4 0.044855,3.2e-4 l 0.370296,0.002 0.00322,0.84896 c 0.00184,0.46691 0.00414,0.8497 0.00506,0.85063 9.2e-6,10e-6 0.00137,10e-6 0.00184,2e-5 v 0.002 h 0.00675 0.8859813 c 0.00138,0 0.00184,0 0.00322,0 h 2.3e-5 c 4.591e-4,0 9.182e-4,0 0.00184,0 h 0.8944152 v -0.002 c 1.057e-4,-1e-5 0.00184,-1e-5 0.00184,-2e-5 9.183e-4,-9.2e-4 0.00322,-0.38372 0.00506,-0.85063 l 0.00322,-0.84896 0.3722564,-0.002 c 0.3485573,-0.002 0.3722564,-0.002 0.3722564,-0.0135 0,-0.0143 -1.6364122,-1.65235 -1.6507546,-1.65235 z"
       id="path3897"
       inkscape:connector-curvature="0" />
  </g>
</svg>
