<?xml version="1.0" encoding="UTF-8" standalone="no"?>
<!-- Created with Inkscape (http://www.inkscape.org/) -->

<svg
   xmlns:dc="http://purl.org/dc/elements/1.1/"
   xmlns:cc="http://creativecommons.org/ns#"
   xmlns:rdf="http://www.w3.org/1999/02/22-rdf-syntax-ns#"
   xmlns:svg="http://www.w3.org/2000/svg"
   xmlns="http://www.w3.org/2000/svg"
   xmlns:sodipodi="http://sodipodi.sourceforge.net/DTD/sodipodi-0.dtd"
   xmlns:inkscape="http://www.inkscape.org/namespaces/inkscape"
   width="150"
   height="150"
   viewBox="0 0 8.4666665 8.4666669"
   version="1.1"
   id="svg4167"
   inkscape:version="0.92.3 (2405546, 2018-03-11)"
   sodipodi:docname="company-2.svg">
  <defs
     id="defs4161" />
  <sodipodi:namedview
     id="base"
     pagecolor="#ffffff"
     bordercolor="#666666"
     borderopacity="1.0"
     inkscape:pageopacity="0.0"
     inkscape:pageshadow="2"
     inkscape:zoom="2.8"
     inkscape:cx="-0.12017335"
     inkscape:cy="35.607567"
     inkscape:document-units="mm"
     inkscape:current-layer="layer1"
     showgrid="false"
     units="px"
     inkscape:window-width="1920"
     inkscape:window-height="1017"
     inkscape:window-x="-8"
     inkscape:window-y="-8"
     inkscape:window-maximized="1" />
  <metadata
     id="metadata4164">
    <rdf:RDF>
      <cc:Work
         rdf:about="">
        <dc:format>image/svg+xml</dc:format>
        <dc:type
           rdf:resource="http://purl.org/dc/dcmitype/StillImage" />
        <dc:title />
      </cc:Work>
    </rdf:RDF>
  </metadata>
  <g
     inkscape:label="Layer 1"
     inkscape:groupmode="layer"
     id="layer1"
     transform="translate(0,-288.53332)">
    <g
       transform="matrix(0.01200398,0.00282982,-0.00282982,0.01200398,2.9449832,289.21002)"
       id="g1935">
      <path
         inkscape:connector-curvature="0"
         d="m 119.03059,132.94428 82.15583,8.8172 c 2.1588,0.23169 3.72041,-2.08295 3.48873,-5.16995 -0.23169,-3.087 -2.16893,-5.77714 -4.32774,-6.00883 l -82.15582,-8.8172 c -2.15881,-0.23169 -3.72097,2.08289 -3.48928,5.16989 0.23169,3.087 2.16947,5.7772 4.32828,6.00889 z"
         id="path1721"
         style="fill:#75b73e;fill-opacity:1;stroke-width:0.65008891" />
      <path
         inkscape:connector-curvature="0"
         d="m 49.656376,179.70836 82.155284,8.81714 c 2.15881,0.23169 3.72097,-2.08288 3.48928,-5.16989 -0.2317,-3.087 -2.16941,-5.77641 -4.32822,-6.0081 l -82.155284,-8.81714 c -2.15881,-0.2317 -3.72103,2.0821 -3.48934,5.16911 0.23169,3.08699 2.16947,5.7772 4.32828,6.00888 z"
         id="path1723"
         style="fill:#75b73e;fill-opacity:1;stroke-width:0.65008891" />
      <path
         inkscape:connector-curvature="0"
         d="m 76.027236,239.58259 c 0.23169,3.087 2.16953,5.77798 4.32834,6.00967 l 82.155284,8.81714 c 2.15881,0.23169 3.7209,-2.08367 3.48922,-5.17067 -0.23169,-3.087 -2.16942,-5.77642 -4.32823,-6.00811 l -82.155274,-8.81714 c -2.15881,-0.23169 -3.72103,2.08211 -3.48934,5.16911 z"
         id="path1725"
         style="fill:#75b73e;fill-opacity:1;stroke-width:0.65008891" />
      <path
         inkscape:connector-curvature="0"
         d="m 127.9205,309.58921 -73.816994,-7.92225 c -2.15881,-0.23169 -3.72102,2.08211 -3.48934,5.16911 0.23169,3.087 2.16948,5.7772 4.32828,6.00889 l 73.817004,7.92225 c 2.15881,0.23169 3.72096,-2.08288 3.48927,-5.16988 -0.23169,-3.08701 -2.16941,-5.77643 -4.32822,-6.00812 z"
         id="path1727"
         style="fill:#75b73e;fill-opacity:1;stroke-width:0.65008891" />
      <path
         inkscape:connector-curvature="0"
         d="m 385.729,154.418 c 21.6,0 39.111,-17.513 39.111,-39.114 0,-21.601 -17.512,-39.113 -39.111,-39.113 -21.605,0 -39.119,17.513 -39.119,39.113 -0.001,21.601 17.513,39.114 39.119,39.114 z"
         id="path1729"
         style="fill:#75b73e;fill-opacity:1" />
      <path
         inkscape:connector-curvature="0"
         d="m 450.066,143.155 c -22.459,31.459 -52.533,35.102 -84.895,15.89 -2.203,-1.306 -11.977,-6.691 -14.141,-7.977 -52.061,-30.906 -104.061,-18.786 -138.934,30.05 -14.819,20.771 19.455,40.459 34.108,19.93 18.018,-25.232 40.929,-32.533 65.986,-24.541 -12.83,22.27 -24.047,44.405 -39.875,75.853 -15.832,31.448 -50.787,56.562 -84.374,36.92 -24.235,-14.165 -46.09,20.651 -21.928,34.772 45.854,26.799 99.619,10.343 127.066,-24.493 0.952,0.509 1.958,0.968 3.062,1.354 22.422,7.812 51.814,28.61 60.77,35.981 8.953,7.371 24.336,44.921 33.471,63.788 11.082,22.893 46.871,6.219 35.748,-16.771 -10.355,-21.406 -27.736,-64.129 -41.293,-74.938 -10.875,-8.669 -31.988,-24.803 -49.895,-33.956 12.115,-23.466 24.729,-46.679 38.008,-69.491 42.328,12.969 82.561,-2.308 111.215,-42.446 14.831,-20.768 -19.435,-40.456 -34.099,-19.925 z"
         id="path1731"
         style="fill:#75b73e;fill-opacity:1" />
      <path
         style="stroke-width:0.53930169"
         inkscape:connector-curvature="0"
         d="m 233.30106,-36.518128 c 11.64897,0 21.09263,-9.444791 21.09263,-21.094247 0,-11.649454 -9.44425,-21.093704 -21.09263,-21.093704 -11.65161,0 -21.09694,9.44479 -21.09694,21.093704 -5.4e-4,11.649456 9.44484,21.094247 21.09694,21.094247 z"
         id="path1729-2" />
      <path
         style="stroke-width:0.53930169"
         inkscape:connector-curvature="0"
         d="m 267.99811,-42.592283 c -12.11217,16.965891 -28.33113,18.930567 -45.78396,8.569503 -1.18814,-0.704328 -6.45927,-3.608462 -7.62626,-4.302009 -28.07659,-16.667658 -56.12028,-10.131322 -74.9274,16.206015 -7.99191,11.201841 10.49217,21.81960673 18.39456,10.748283 9.71708,-13.60766 22.07308,-17.545102 35.5863,-13.234997 -6.91924,12.010243 -12.96853,23.94768573 -21.5046,40.907645 -8.53822,16.95997 -27.38957,30.50398 -45.50309,19.91102 -13.06998,-7.63921 -24.85642,11.13712 -11.82581,18.7526 24.7292,14.45274 53.7247,5.578 68.52691,-13.20912 0.51347,0.27451 1.05601,0.52205 1.65134,0.73022 12.09228,4.21303 27.94338,15.42942 32.77342,19.40461 4.82837,3.97519 13.12439,24.22598 18.05091,34.40098 5.97654,12.346233 25.27766,3.35391 19.27896,-9.04463 -5.58447,-11.54429 -14.95807,-34.58488 -22.26939,-40.41419 -5.86485,-4.67521 -17.25118,-13.3763 -26.9084,-18.31253 6.53359,-12.655255 13.33634,-25.1740653 20.49772,-37.4766153 22.82756,6.994209 44.52529,-1.2447077 59.97844,-22.8911987 7.99839,-11.200218 -10.48132,-21.817989 -18.38965,-10.745586 z"
         id="path1731-5" />
      <path
         style="stroke-width:0.53930169"
         inkscape:connector-curvature="0"
         d="m 172.50245,427.72501 c 11.649,0 21.0926,-9.44479 21.0926,-21.09425 0,-11.64946 -9.4442,-21.09371 -21.0926,-21.09371 -11.6516,0 -21.097,9.44479 -21.097,21.09371 -5e-4,11.64946 9.4449,21.09425 21.097,21.09425 z"
         id="path1729-2-6" />
      <path
         style="stroke-width:0.53930169"
         inkscape:connector-curvature="0"
         d="m 207.19945,421.65085 c -12.1121,16.96589 -28.3311,18.93057 -45.7839,8.56951 -1.1882,-0.70433 -6.4593,-3.60847 -7.6263,-4.30202 -28.0766,-16.66765 -56.120304,-10.13132 -74.927409,16.20602 -7.9919,11.20184 10.492205,21.81961 18.394605,10.74828 9.717104,-13.60766 22.073104,-17.5451 35.586304,-13.23499 -6.9193,12.01024 -12.9686,23.94768 -21.5046,40.90764 -8.5382,16.95997 -27.389609,30.50398 -45.503109,19.91102 -13.07,-7.63921 -24.8564,11.13712 -11.8258,18.7526 24.7292,14.45274 53.724709,5.578 68.526909,-13.20912 0.5135,0.27451 1.056,0.52205 1.6513,0.73022 12.0923,4.21303 27.9434,15.42942 32.7734,19.40461 4.8284,3.97519 13.1244,24.22598 18.051,34.40098 5.9765,12.34623 25.2776,3.35391 19.2789,-9.04463 -5.5845,-11.54429 -14.9581,-34.58488 -22.2694,-40.41419 -5.8648,-4.67521 -17.2512,-13.3763 -26.9084,-18.31253 6.5336,-12.65525 13.3364,-25.17406 20.4977,-37.47661 22.8276,6.99421 44.5253,-1.24471 59.9785,-22.8912 7.9984,-11.20022 -10.4813,-21.81799 -18.3897,-10.74559 z"
         id="path1731-5-1" />
      <path
         style="stroke-width:0.53930163"
         inkscape:connector-curvature="0"
         d="m 8.3312687,87.704822 c 11.6490003,0 21.0926003,-9.44479 21.0926003,-21.094248 0,-11.64945 -9.4442,-21.0937 -21.0926003,-21.0937 -11.6516,0 -21.0969997,9.44479 -21.0969997,21.0937 -5e-4,11.649458 9.4448997,21.094248 21.0969997,21.094248 z"
         id="path1729-2-1" />
      <path
         style="stroke-width:0.53930163"
         inkscape:connector-curvature="0"
         d="m 43.028269,81.630672 c -12.1121,16.96589 -28.3311,18.930558 -45.7839003,8.5695 -1.1882,-0.70433 -6.4593,-3.60846 -7.6262997,-4.30201 -28.076598,-16.667658 -56.120302,-10.13132 -74.927402,16.206018 -7.9919,11.20184 10.4922,21.8196 18.3946,10.74828 9.717104,-13.607658 22.073104,-17.545098 35.586304,-13.234998 -6.9193,12.010238 -12.9686,23.947688 -21.5046,40.907648 -8.5382,16.95997 -27.389604,30.50398 -45.503104,19.91102 -13.069997,-7.63921 -24.856397,11.13712 -11.825797,18.7526 24.729197,14.45274 53.724701,5.57799 68.526901,-13.20912 0.5135,0.27449 1.056,0.52205 1.6513,0.73022 12.0923,4.21303 27.943398,15.42942 32.7733977,19.40461 4.8284,3.97519 13.1244,24.22598 18.0510003,34.40098 5.9765,12.34623 25.2776,3.35391 19.2789,-9.04463 -5.5845,-11.54429 -14.9581,-34.58488 -22.2694003,-40.41419 -5.8648,-4.67521 -17.2512,-13.3763 -26.9083997,-18.31253 6.5336,-12.65526 13.3363997,-25.17407 20.4976997,-37.47662 22.8276003,6.99421 44.5253003,-1.24471 59.9785003,-22.891198 7.9984,-11.20022 -10.4813,-21.817988 -18.3897,-10.74558 z"
         id="path1731-5-0" />
      <path
         style="stroke-width:0.53930163"
         inkscape:connector-curvature="0"
         d="m -16.991093,302.66923 c 11.6490001,0 21.0926001,-9.44479 21.0926001,-21.09425 0,-11.64945 -9.4442,-21.0937 -21.0926001,-21.0937 -11.6516,0 -21.097,9.44479 -21.097,21.0937 -5e-4,11.64946 9.4449,21.09425 21.097,21.09425 z"
         id="path1729-2-1-3" />
      <path
         style="stroke-width:0.53930163"
         inkscape:connector-curvature="0"
         d="m 17.705907,296.59508 c -12.1120999,16.96589 -28.3311,18.93056 -45.7839,8.5695 -1.1882,-0.70433 -6.4593,-3.60846 -7.6263,-4.30201 -28.0766,-16.66766 -56.120303,-10.13132 -74.927407,16.20602 -7.9919,11.20184 10.4922,21.8196 18.394604,10.74828 9.7171,-13.60766 22.073103,-17.5451 35.586303,-13.235 -6.9193,12.01024 -12.9686,23.94769 -21.5046,40.90765 -8.538203,16.95997 -27.389607,30.50398 -45.503107,19.91102 -13.07,-7.63921 -24.8564,11.13712 -11.8258,18.75261 24.7292,14.45273 53.724704,5.57798 68.526907,-13.20913 0.5135,0.2745 1.056,0.52205 1.6513,0.73022 12.0923,4.21303 27.9434,15.42942 32.7734,19.40461 4.8284,3.97519 13.1244,24.22598 18.051,34.40098 5.9765001,12.34623 25.2776,3.35391 19.2789001,-9.04463 -5.58449997,-11.54428 -14.9581001,-34.58488 -22.2694001,-40.41419 -5.8648,-4.67521 -17.2512,-13.3763 -26.9084,-18.31253 6.5336,-12.65526 13.3364,-25.17407 20.4977,-37.47662 22.8276001,6.99421 44.5253,-1.24471 59.9785,-22.8912 7.9984,-11.20022 -10.4813,-21.81799 -18.3897,-10.74558 z"
         id="path1731-5-0-6" />
    </g>
  </g>
</svg>
